<svg width="76" height="10" viewBox="0 0 76 10" fill="none" xmlns="http://www.w3.org/2000/svg">
<path d="M3.07049 9L0.269126 0.436893H2.32427L4.75864 8.02136H3.73107L6.27553 0.436893H8.11049L10.5571 8.02136H9.56621L12.0617 0.436893H13.9579L11.1565 9H9.02796L6.86272 2.34524H7.42544L5.19903 9H3.07049ZM18.9525 9V0.436893H20.9342V9H18.9525ZM26.6755 9V0.436893H30.8592C31.9357 0.436893 32.7431 0.640776 33.2813 1.04854C33.8277 1.45631 34.1009 1.99456 34.1009 2.6633C34.1009 3.11184 33.9908 3.5033 33.7707 3.83767C33.5505 4.16388 33.2487 4.4167 32.8654 4.59612C32.4821 4.77553 32.0417 4.86524 31.5442 4.86524L31.7767 4.36369C32.3149 4.36369 32.792 4.4534 33.2079 4.63282C33.6239 4.80408 33.946 5.06097 34.1743 5.4035C34.4108 5.74602 34.5291 6.16602 34.5291 6.6635C34.5291 7.39748 34.2396 7.97243 33.6606 8.38835C33.0815 8.79612 32.2293 9 31.1039 9H26.6755ZM28.645 7.50757H30.9571C31.4708 7.50757 31.8582 7.42602 32.1192 7.26291C32.3883 7.09165 32.5229 6.82252 32.5229 6.45553C32.5229 6.0967 32.3883 5.83165 32.1192 5.66039C31.8582 5.48097 31.4708 5.39126 30.9571 5.39126H28.4982V3.94777H30.6145C31.0957 3.94777 31.4627 3.86621 31.7155 3.70311C31.9765 3.53184 32.107 3.27495 32.107 2.93243C32.107 2.59806 31.9765 2.34932 31.7155 2.18621C31.4627 2.01495 31.0957 1.92932 30.6145 1.92932H28.645V7.50757ZM43.8978 9.1468C43.2209 9.1468 42.5929 9.0367 42.0139 8.8165C41.443 8.59631 40.9455 8.28641 40.5215 7.8868C40.1055 7.48718 39.7793 7.01825 39.5428 6.48C39.3145 5.94175 39.2003 5.35456 39.2003 4.71845C39.2003 4.08233 39.3145 3.49515 39.5428 2.95689C39.7793 2.41864 40.1096 1.94971 40.5337 1.5501C40.9578 1.15049 41.4552 0.840582 42.0261 0.620388C42.597 0.400194 43.2168 0.290097 43.8855 0.290097C44.5624 0.290097 45.1822 0.400194 45.745 0.620388C46.3158 0.840582 46.8092 1.15049 47.2252 1.5501C47.6492 1.94971 47.9795 2.41864 48.216 2.95689C48.4525 3.48699 48.5708 4.07417 48.5708 4.71845C48.5708 5.35456 48.4525 5.94583 48.216 6.49223C47.9795 7.03049 47.6492 7.49942 47.2252 7.89903C46.8092 8.29049 46.3158 8.59631 45.745 8.8165C45.1822 9.0367 44.5665 9.1468 43.8978 9.1468ZM43.8855 7.45864C44.2688 7.45864 44.6195 7.3934 44.9376 7.26291C45.2638 7.13243 45.5492 6.94485 45.7939 6.70019C46.0385 6.45553 46.2261 6.16602 46.3566 5.83165C46.4952 5.49728 46.5646 5.12621 46.5646 4.71845C46.5646 4.31068 46.4952 3.93961 46.3566 3.60524C46.2261 3.27087 46.0385 2.98136 45.7939 2.7367C45.5574 2.49204 45.276 2.30447 44.9498 2.17398C44.6236 2.0435 44.2688 1.97825 43.8855 1.97825C43.5022 1.97825 43.1475 2.0435 42.8213 2.17398C42.5032 2.30447 42.2219 2.49204 41.9772 2.7367C41.7325 2.98136 41.5409 3.27087 41.4022 3.60524C41.2718 3.93961 41.2065 4.31068 41.2065 4.71845C41.2065 5.11806 41.2718 5.48913 41.4022 5.83165C41.5409 6.16602 41.7285 6.45553 41.965 6.70019C42.2096 6.94485 42.4951 7.13243 42.8213 7.26291C43.1475 7.3934 43.5022 7.45864 43.8855 7.45864ZM53.7692 9V0.436893H55.4085L60.4607 6.60233H59.6655V0.436893H61.6228V9H59.9958L54.9314 2.83456H55.7265V9H53.7692ZM67.3579 9V0.436893H71.248C72.1777 0.436893 72.9973 0.61631 73.7068 0.975146C74.4164 1.32583 74.9709 1.81922 75.3705 2.45534C75.7701 3.09146 75.97 3.84583 75.97 4.71845C75.97 5.58291 75.7701 6.33728 75.3705 6.98155C74.9709 7.61767 74.4164 8.11515 73.7068 8.47398C72.9973 8.82466 72.1777 9 71.248 9H67.3579ZM69.3397 7.37301H71.1501C71.721 7.37301 72.2144 7.26699 72.6303 7.05495C73.0544 6.83476 73.3806 6.52485 73.609 6.12524C73.8455 5.72563 73.9637 5.2567 73.9637 4.71845C73.9637 4.17204 73.8455 3.70311 73.609 3.31165C73.3806 2.91204 73.0544 2.60621 72.6303 2.39417C72.2144 2.17398 71.721 2.06388 71.1501 2.06388H69.3397V7.37301Z" fill="#17171A"/>
</svg>
